<svg width="17" height="24" viewBox="0 0 17 24" fill="none" xmlns="http://www.w3.org/2000/svg">
<path fill-rule="evenodd" clip-rule="evenodd" d="M11 0C9.34315 0 8 1.34315 8 3V13.5997C7.24993 13.2163 6.40022 13 5.5 13C2.46243 13 0 15.4624 0 18.5C0 21.5376 2.46243 24 5.5 24C8.53757 24 11 21.5376 11 18.5V5C11 3.89543 11.8954 3 13 3H15.5C16.3284 3 17 2.32843 17 1.5C17 0.671573 16.3284 0 15.5 0H11ZM8 18.5C8 19.8807 6.88071 21 5.5 21C4.11929 21 3 19.8807 3 18.5C3 17.1193 4.11929 16 5.5 16C6.88071 16 8 17.1193 8 18.5Z" fill="white"/>
</svg>
