<svg width="95" height="95" viewBox="0 0 95 95" fill="none" xmlns="http://www.w3.org/2000/svg">
  <path
    d="M47.5 0C21.268 0 0 21.268 0 47.5C0 73.732 21.268 95 47.5 95C73.732 95 95 73.732 95 47.5C95 21.268 73.732 0 47.5 0ZM47.5 61C40.044 61 34 54.956 34 47.5C34 46.953 34.042 46.417 34.105 45.888L5.16 29.09C9.816 18.399 18.398 9.816 29.09 5.16L45.889 34.104C46.418 34.042 46.954 34 47.5 34C54.956 34 61 40.045 61 47.5C61 54.956 54.956 61 47.5 61Z"
    fill="currentColor"/>
  <path
    d="M47.5 35.75C41.011 35.75 35.75 41.011 35.75 47.5C35.75 53.988 41.011 59.25 47.5 59.25C53.988 59.25 59.25 53.988 59.25 47.5C59.25 41.011 53.988 35.75 47.5 35.75ZM47.5 52.514C44.731 52.514 42.486 50.269 42.486 47.5C42.486 44.731 44.731 42.486 47.5 42.486C50.269 42.486 52.514 44.731 52.514 47.5C52.514 50.269 50.269 52.514 47.5 52.514Z"
    fill="currentColor"/>
</svg>
