<svg width="16" height="10" viewBox="0 0 16 10" fill="none" xmlns="http://www.w3.org/2000/svg">
  <path
    d="M14.54 9.06997L8.00002 2.52997L1.46002 9.06997C1.31813 9.21054 1.12621 9.28898 0.926482 9.28804C0.726756 9.2871 0.535583 9.20686 0.395018 9.06497C0.254453 8.92308 0.176012 8.73116 0.176949 8.53144C0.177887 8.33171 0.258127 8.14054 0.400018 7.99997L7.47002 0.929972C7.61064 0.789522 7.80127 0.710632 8.00002 0.710632C8.19877 0.710632 8.38939 0.789522 8.53002 0.929972L15.6 7.99997C15.7325 8.14215 15.8046 8.33019 15.8012 8.5245C15.7978 8.7188 15.7191 8.90418 15.5816 9.04159C15.4442 9.17901 15.2588 9.25772 15.0645 9.26115C14.8702 9.26458 14.6822 9.19245 14.54 9.05997V9.06997Z"
    fill="currentColor"/>
</svg>
