<svg width="100" height="100" viewBox="0 0 100 100" fill="none" xmlns="http://www.w3.org/2000/svg">
<path d="M98.44 43.73C97.64 43.22 91.33 39.45 88.83 38.3L85.73 30.8C86.65 28.32 88.42 21.37 88.73 20.16C88.8542 19.6093 88.8368 19.0362 88.6794 18.4941C88.522 17.9519 88.2298 17.4586 87.83 17.06L82.94 12.2C82.5425 11.7987 82.0492 11.5054 81.5067 11.3479C80.9643 11.1904 80.3906 11.1739 79.84 11.3C78.92 11.51 71.84 13.3 69.2 14.3L61.7 11.2C60.61 8.8 56.94 2.65 56.27 1.59C55.9738 1.1049 55.5581 0.703947 55.0626 0.425548C54.5671 0.147149 54.0084 0.000622885 53.44 0L46.56 0C45.995 0.000283039 45.4393 0.143459 44.9445 0.41621C44.4497 0.68896 44.0319 1.08242 43.73 1.56C43.22 2.36 39.45 8.67 38.3 11.17L30.8 14.27C28.32 13.35 21.37 11.58 20.16 11.27C19.6093 11.1458 19.0362 11.1632 18.4941 11.3206C17.9519 11.478 17.4586 11.7702 17.06 12.17L12.2 17.06C11.7987 17.4575 11.5054 17.9508 11.3479 18.4933C11.1904 19.0357 11.1739 19.6094 11.3 20.16C11.51 21.08 13.3 28.16 14.3 30.8L11.2 38.3C8.8 39.39 2.65 43.06 1.59 43.73C1.1049 44.0262 0.703947 44.4419 0.425548 44.9374C0.147149 45.4329 0.000622885 45.9916 0 46.56L0 53.43C0.000283039 53.995 0.143459 54.5507 0.41621 55.0455C0.68896 55.5403 1.08242 55.9581 1.56 56.26C2.36 56.77 8.67 60.54 11.17 61.69L14.27 69.19C13.35 71.67 11.58 78.62 11.27 79.83C11.1458 80.3807 11.1632 80.9538 11.3206 81.4959C11.478 82.0381 11.7702 82.5314 12.17 82.93L17.03 87.79C17.4275 88.1913 17.9208 88.4846 18.4633 88.6421C19.0057 88.7996 19.5794 88.8161 20.13 88.69C21.05 88.48 28.13 86.69 30.77 85.69L38.27 88.79C39.36 91.19 43.03 97.34 43.7 98.4C43.9976 98.8913 44.4175 99.297 44.9188 99.5775C45.4201 99.8579 45.9856 100.004 46.56 100H53.43C53.995 99.9997 54.5507 99.8565 55.0455 99.5838C55.5403 99.311 55.9581 98.9176 56.26 98.44C56.77 97.64 60.54 91.33 61.69 88.83L69.19 85.73C71.67 86.65 78.62 88.42 79.83 88.73C80.3807 88.8542 80.9538 88.8368 81.4959 88.6794C82.0381 88.522 82.5314 88.2298 82.93 87.83L87.79 82.97C88.1913 82.5725 88.4846 82.0792 88.6421 81.5367C88.7996 80.9943 88.8161 80.4206 88.69 79.87C88.48 78.95 86.69 71.87 85.69 69.23L88.79 61.73C91.19 60.64 97.34 56.97 98.4 56.3C98.8913 56.0024 99.297 55.5825 99.5775 55.0812C99.8579 54.5799 100.004 54.0144 100 53.44V46.56C100.004 45.9941 99.8633 45.4366 99.5901 44.941C99.3169 44.4454 98.9209 44.0284 98.44 43.73ZM50 71.77C45.6903 71.766 41.4786 70.4842 37.8975 68.0866C34.3164 65.689 31.5266 62.2833 29.881 58.3002C28.2355 54.3171 27.808 49.9354 28.6526 45.7094C29.4973 41.4833 31.5761 37.6026 34.6263 34.558C37.6765 31.5134 41.561 29.4417 45.7886 28.6048C50.0162 27.7679 54.3971 28.2034 58.3772 29.8563C62.3572 31.5092 65.7578 34.3052 68.1488 37.8908C70.5399 41.4763 71.8139 45.6903 71.81 50C71.7968 55.7766 69.4934 61.3123 65.405 65.3932C61.3165 69.4742 55.7766 71.7674 50 71.77Z" fill="black"/>
</svg>
