<svg width="96" height="96" viewBox="0 0 96 96" fill="none" xmlns="http://www.w3.org/2000/svg">
  <path
    d="M90.8 38.2L84.7 36.5L82.1 30.1L85.2 24.6C86.6 22.1 86.2 19 84.2 17L79 11.8C77 9.8 73.8 9.4 71.4 10.8L65.9 13.9L59.5 11.3L57.8 5.2C57 2.5 54.5 0.5 51.7 0.5H44.4C41.6 0.5 39 2.4 38.3 5.2L36.6 11.3L30.2 13.9L24.7 10.8C22.2 9.4 19.1 9.8 17.1 11.8L11.8 17C9.8 19 9.4 22.2 10.8 24.6L13.9 30.1L11.3 36.5L5.2 38.2C2.5 39 0.5 41.5 0.5 44.3V51.6C0.5 54.5 2.4 57 5.2 57.7L11.3 59.4L13.9 65.8L10.8 71.3C9.4 73.8 9.8 76.9 11.8 78.9L17 84.1C19 86.1 22.2 86.5 24.6 85.1L30.1 82L36.5 84.6L38.2 90.7C39 93.4 41.5 95.4 44.3 95.4H51.6C54.4 95.4 57 93.5 57.7 90.7L59.4 84.6L65.8 82L71.3 85.1C73.8 86.5 76.9 86.1 78.9 84.1L84.1 78.9C86.1 76.9 86.5 73.8 85.1 71.3L82 65.8L84.6 59.4L90.7 57.7C93.4 56.9 95.4 54.4 95.4 51.6V44.3C95.5 41.5 93.6 39 90.8 38.2ZM90.1 51.7C90.1 52.1 89.8 52.6 89.4 52.7L80.8 55L76.2 66.2L80.6 74C80.8 74.4 80.8 74.9 80.4 75.2L75.2 80.4C74.9 80.7 74.4 80.8 74 80.6L66.2 76.2L55 80.8L52.6 89.4C52.5 89.8 52.1 90.1 51.6 90.1H44.3C43.9 90.1 43.5 89.8 43.3 89.4L41 80.8L29.8 76.2L22 80.6C21.6 80.8 21.1 80.8 20.8 80.4L15.6 75.2C15.3 74.9 15.2 74.4 15.4 74L19.8 66.2L15.2 55L6.6 52.6C6.2 52.5 5.9 52.1 5.9 51.6V44.3C5.9 43.8 6.2 43.5 6.6 43.3L15.2 40.9L19.8 29.7L15.4 22C15.2 21.6 15.2 21.1 15.6 20.8L20.8 15.6C21.1 15.3 21.6 15.2 22 15.4L29.8 19.8L41 15.2L43.4 6.6C43.5 6.2 43.9 5.9 44.4 5.9H51.7C52.1 5.9 52.5 6.2 52.7 6.6L55.1 15.2L66.3 19.9L74.1 15.5C74.5 15.3 75 15.3 75.3 15.7L80.5 20.9C80.8 21.2 80.9 21.7 80.7 22.1L76.3 29.9L80.8 41L89.4 43.4C89.8 43.5 90.1 43.9 90.1 44.4V51.7Z"
    fill="currentColor"/>
  <path
    d="M48 30C38.1 30 30 38.1 30 48C30 57.9 38.1 66 48 66C57.9 66 66 57.9 66 48C66 38.1 57.9 30 48 30ZM48 60.6C41 60.6 35.4 54.9 35.4 48C35.4 41 41.1 35.4 48 35.4C54.9 35.4 60.6 41 60.6 48C60.6 55 55 60.6 48 60.6Z"
    fill="currentColor"/>
</svg>
