<svg width="80" height="87" viewBox="0 0 80 87" fill="none" xmlns="http://www.w3.org/2000/svg">
<path d="M54.9 68.2L49.8 73.3V43C49.8 40.8 48 39 45.8 39C43.6 39 41.8 40.8 41.8 43V73.3L36.7 68.2C35.1 66.6 32.6 66.6 31 68.2C29.4 69.8 29.4 72.3 31 73.9L43 85.9C43.2 86.1 43.4 86.3 43.6 86.4C43.7 86.4 43.8 86.5 43.8 86.5C44 86.6 44.1 86.7 44.3 86.7C44.4 86.7 44.5 86.8 44.6 86.8C44.8 86.9 44.9 86.9 45.1 86.9H45.5H45.9H46.3H46.7C46.9 86.9 47 86.8 47.2 86.7C47.3 86.7 47.4 86.7 47.4 86.6C47.6 86.5 47.8 86.4 47.9 86.3C48 86.3 48 86.2 48.1 86.2C48.3 86 48.5 85.9 48.7 85.7L60.6 73.8C62.2 72.2 62.2 69.7 60.6 68.1C59 66.6 56.5 66.6 54.9 68.2V68.2Z" fill="currentColor"/>
<path d="M49 0.799988C37 0.799988 26.2 7.79999 21.1 18.4C9.39998 18.9 0.0999756 28.6 0.0999756 40.4C0.0999756 52.6 9.99998 62.5 22.2 62.5H34C36.2 62.5 38 60.7 38 58.5C38 56.3 36.2 54.5 34 54.5H22.1C14.3 54.5 7.99998 48.2 7.99998 40.4C7.99998 32.6 14.3 26.3 22.1 26.3C22.5 26.3 22.8 26.3 23.4 26.4L26.5 26.7L27.5 23.8C30.8 14.8 39.4 8.69999 49 8.69999C61.6 8.69999 71.9 19 71.9 31.6C71.9 41.1 65.9 49.8 57 53.1C54.9 53.9 53.9 56.2 54.6 58.2C55.4 60.3 57.7 61.3 59.7 60.6C71.8 56.1 79.9 44.5 79.9 31.6C79.8 14.7 66 0.799988 49 0.799988V0.799988Z" fill="currentColor"/>
</svg>
