<svg width="48" height="42" viewBox="0 0 48 42" fill="none" xmlns="http://www.w3.org/2000/svg">
<path d="M39 34H29V32H39C42.859 32 46 28.859 46 25C46 21.14 42.859 18 39 18C38.447 18 38 17.552 38 17V16C38 8.28 32.168 2 25 2C19.205 2 13 5.616 13 11C13 11.552 12.553 12 12 12C6.486 12 2 16.486 2 22C2 27.514 6.486 32 12 32H19V34H12C5.383 34 0 28.617 0 22C0 15.703 4.875 10.523 11.05 10.037C11.698 3.81 18.591 0 25 0C33.271 0 40 7.178 40 16V16.055C44.494 16.554 48 20.375 48 25C48 29.962 43.963 34 39 34ZM24 42C23.447 42 23 41.552 23 41V18C23 17.448 23.447 17 24 17C24.553 17 25 17.448 25 18V41C25 41.552 24.553 42 24 42ZM24 42C23.779 42 23.559 41.927 23.375 41.781L18.375 37.781C17.943 37.435 17.874 36.806 18.219 36.376C18.567 35.945 19.194 35.874 19.625 36.22L24 39.72L28.375 36.22C28.809 35.874 29.436 35.946 29.781 36.376C30.126 36.807 30.054 37.438 29.625 37.781L24.625 41.781C24.441 41.927 24.221 42 24 42Z" fill="black"/>
</svg>
