<svg width="88" height="84" viewBox="0 0 88 84" fill="none" xmlns="http://www.w3.org/2000/svg">
<path d="M19.79 61.86H31.1C31.8957 61.86 32.6587 61.5439 33.2213 60.9813C33.7839 60.4187 34.1 59.6556 34.1 58.86C34.1 58.0643 33.7839 57.3013 33.2213 56.7387C32.6587 56.176 31.8957 55.86 31.1 55.86H19.79C16.264 55.86 12.8823 54.4593 10.389 51.966C7.89574 49.4727 6.49502 46.091 6.49502 42.565C6.49502 39.0389 7.89574 35.6573 10.389 33.164C12.8823 30.6707 16.264 29.27 19.79 29.27H22.23C22.9794 29.2732 23.703 28.9959 24.2582 28.4925C24.8134 27.9891 25.1601 27.2961 25.23 26.55C26.29 15.28 36.17 6.45998 47.73 6.45998C53.4298 6.41222 58.9339 8.53726 63.1228 12.4029C67.3117 16.2686 69.8709 21.5847 70.28 27.27C70.3162 27.8702 70.532 28.4457 70.8993 28.9218C71.2667 29.3979 71.7686 29.7526 72.34 29.94C75.3442 30.9238 77.8994 32.9463 79.5468 35.6444C81.1941 38.3424 81.8258 41.5393 81.3284 44.6612C80.831 47.783 79.237 50.6253 76.8327 52.6778C74.4284 54.7303 71.3712 55.8585 68.21 55.86H56.9C56.1044 55.86 55.3413 56.176 54.7787 56.7387C54.2161 57.3013 53.9 58.0643 53.9 58.86C53.9 59.6556 54.2161 60.4187 54.7787 60.9813C55.3413 61.5439 56.1044 61.86 56.9 61.86H68.21C72.6115 61.8413 76.8743 60.3178 80.2907 57.5426C83.7071 54.7673 86.0716 50.9072 86.9918 46.6029C87.912 42.2986 87.3324 37.809 85.3494 33.8795C83.3664 29.9499 80.0991 26.8167 76.09 25C75.1046 18.3412 71.8084 12.2412 66.7786 7.76781C61.7487 3.29446 55.3057 0.732818 48.5774 0.531351C41.8491 0.329884 35.2643 2.50143 29.9758 6.66582C24.6873 10.8302 21.0321 16.7221 19.65 23.31C14.5327 23.3299 9.63281 25.3818 6.02836 29.0144C2.42391 32.647 0.410125 37.5626 0.430017 42.68C0.449908 47.7973 2.50185 52.6972 6.13442 56.3016C9.767 59.9061 14.6827 61.9199 19.8 61.9L19.79 61.86Z" fill="currentColor"/>
<path d="M44 39.41C43.2044 39.41 42.4413 39.726 41.8787 40.2887C41.3161 40.8513 41 41.6143 41 42.41V73.57L33 66.06C32.7156 65.7797 32.3782 65.559 32.0074 65.4108C31.6366 65.2626 31.24 65.1899 30.8408 65.197C30.4416 65.2041 30.0478 65.2908 29.6825 65.4521C29.3172 65.6133 28.9878 65.8459 28.7136 66.1361C28.4393 66.4263 28.2258 66.7683 28.0854 67.1421C27.9451 67.516 27.8808 67.914 27.8963 68.313C27.9118 68.712 28.0068 69.1039 28.1757 69.4657C28.3446 69.8275 28.5841 70.1519 28.88 70.42L41.88 82.71C42.4369 83.236 43.174 83.5291 43.94 83.5291C44.7061 83.5291 45.4431 83.236 46 82.71L59 70.42C59.436 69.8603 59.6595 69.1644 59.6309 68.4555C59.6023 67.7467 59.3235 67.071 58.844 66.5483C58.3644 66.0255 57.7151 65.6897 57.0114 65.6003C56.3077 65.5109 55.595 65.6738 55 66.06L47 73.57V42.41C47 41.6143 46.6839 40.8513 46.1213 40.2887C45.5587 39.726 44.7957 39.41 44 39.41V39.41Z" fill="currentColor"/>
</svg>
