<svg width="71" height="57" viewBox="0 0 71 57" fill="none" xmlns="http://www.w3.org/2000/svg">
  <path d="M5.97808 3.41607H19.7655C20.9517 3.41607 22.0323 4.22422 22.519 5.4707L24.6305 10.9011C25.5934 13.3753 27.7323 14.9721 30.0811 14.9721H57.0156C58.6796 14.9721 60.0345 16.5342 60.0345 18.4551V21.8176H12.9696C10.2451 21.8176 7.86585 23.9453 7.18397 26.9914L2.95917 45.8564V6.89912C2.95917 4.97816 4.31406 3.41607 5.97808 3.41607V3.41607ZM5.97808 0C2.68259 0 0 3.0948 0 6.89912V50.2196H0.025158C0.0754393 54.0547 2.75256 57 5.98 57H58.0311C60.7556 57 63.1349 54.8725 63.8168 51.828L70.8066 30.442C71.7843 26.0777 68.9318 21.8176 65.021 21.8176H62.9923V18.4551C62.9923 14.6525 60.3115 11.5579 57.0159 11.5579H30.0814C28.8951 11.5579 27.8162 10.7514 27.3296 9.50324L25.2163 4.07085C24.2534 1.5967 22.1146 0 19.7657 0H5.97808Z" fill="currentColor" />
</svg>
