<svg width="22" height="22" viewBox="0 0 22 22" fill="none" xmlns="http://www.w3.org/2000/svg">
  <path
    d="M21.0215 19.6064L16.0254 14.6103C17.2578 13.0703 18 11.1211 18 9C18 4.0371 13.9624 0 9 0C4.0376 0 0 4.0371 0 9C0 13.9629 4.0376 18 9 18C11.1221 18 13.0713 17.2578 14.6113 16.0244L19.6074 21.0205C19.8027 21.2158 20.0586 21.3135 20.3144 21.3135C20.5702 21.3135 20.8261 21.2158 21.0214 21.0205C21.4121 20.6299 21.4121 19.9971 21.0215 19.6064ZM2 9C2 5.1406 5.1401 2 9 2C12.8599 2 16 5.1406 16 9C16 12.8594 12.8599 16 9 16C5.1401 16 2 12.8594 2 9Z"
    fill="currentColor"/>
</svg>
