<svg width="96" height="58" viewBox="0 0 96 58" fill="none" xmlns="http://www.w3.org/2000/svg">
  <path
    d="M48 0.200012C36.2 0.200012 25.4 4.50001 17.1 11.7L13.2 8.30001L8.60003 12.9L38.1 46.6C37.8 49.5 38.7 52.6 40.9 54.8C44.8 58.7 51.1 58.7 55 54.8C58.9 50.9 58.9 44.6 55 40.7C52.8 38.5 49.7 37.5 46.8 37.9L28.5 21.8C33.9 17.7 40.7 15.2 48 15.2C66 15.2 80.6 29.8 80.6 47.8H95.6C95.5 21.6 74.2 0.200012 48 0.200012ZM45.2 45C46.7 43.5 49.3 43.5 50.8 45C52.3 46.5 52.3 49.1 50.8 50.6C49.3 52.1 46.7 52.1 45.2 50.6C43.7 49 43.7 46.5 45.2 45ZM7.90002 22.2L18.4 34.1C16.5 38.2 15.4 42.8 15.4 47.7H0.400024C0.500024 38.4 3.20002 29.6 7.90002 22.2Z"
    fill="currentColor"/>
</svg>
