<svg width="43" height="64" viewBox="0 0 43 64" fill="none" xmlns="http://www.w3.org/2000/svg">
  <path
    d="M28.43 12.23H24.92C24.7166 12.2326 24.5222 12.3145 24.3784 12.4584C24.2345 12.6022 24.1526 12.7966 24.15 13V17.63C24.15 17.7311 24.1699 17.8312 24.2086 17.9247C24.2473 18.0181 24.304 18.103 24.3755 18.1745C24.447 18.246 24.5319 18.3027 24.6253 18.3414C24.7188 18.3801 24.8189 18.4 24.92 18.4H28.43C28.5315 18.4013 28.6322 18.3823 28.7263 18.3441C28.8203 18.3059 28.9057 18.2492 28.9775 18.1775C29.0492 18.1057 29.1059 18.0203 29.1441 17.9263C29.1823 17.8322 29.2013 17.7315 29.2 17.63V13C29.2 12.7958 29.1189 12.5999 28.9745 12.4555C28.8301 12.3111 28.6342 12.23 28.43 12.23V12.23ZM17.64 12.23H14.13C13.9258 12.23 13.7299 12.3111 13.5855 12.4555C13.4411 12.5999 13.36 12.7958 13.36 13V17.63C13.3587 17.7315 13.3777 17.8322 13.4159 17.9263C13.4541 18.0203 13.5108 18.1057 13.5825 18.1775C13.6543 18.2492 13.7397 18.3059 13.8337 18.3441C13.9278 18.3823 14.0285 18.4013 14.13 18.4H17.64C17.7411 18.4 17.8412 18.3801 17.9347 18.3414C18.0281 18.3027 18.113 18.246 18.1845 18.1745C18.256 18.103 18.3127 18.0181 18.3514 17.9247C18.3901 17.8312 18.41 17.7311 18.41 17.63V13C18.4074 12.7966 18.3255 12.6022 18.1816 12.4584C18.0378 12.3145 17.8434 12.2326 17.64 12.23V12.23ZM28.43 12.23H24.92C24.7166 12.2326 24.5222 12.3145 24.3784 12.4584C24.2345 12.6022 24.1526 12.7966 24.15 13V17.63C24.15 17.7311 24.1699 17.8312 24.2086 17.9247C24.2473 18.0181 24.304 18.103 24.3755 18.1745C24.447 18.246 24.5319 18.3027 24.6253 18.3414C24.7188 18.3801 24.8189 18.4 24.92 18.4H28.43C28.5315 18.4013 28.6322 18.3823 28.7263 18.3441C28.8203 18.3059 28.9057 18.2492 28.9775 18.1775C29.0492 18.1057 29.1059 18.0203 29.1441 17.9263C29.1823 17.8322 29.2013 17.7315 29.2 17.63V13C29.2 12.7958 29.1189 12.5999 28.9745 12.4555C28.8301 12.3111 28.6342 12.23 28.43 12.23V12.23ZM17.64 12.23H14.13C13.9258 12.23 13.7299 12.3111 13.5855 12.4555C13.4411 12.5999 13.36 12.7958 13.36 13V17.63C13.3587 17.7315 13.3777 17.8322 13.4159 17.9263C13.4541 18.0203 13.5108 18.1057 13.5825 18.1775C13.6543 18.2492 13.7397 18.3059 13.8337 18.3441C13.9278 18.3823 14.0285 18.4013 14.13 18.4H17.64C17.7411 18.4 17.8412 18.3801 17.9347 18.3414C18.0281 18.3027 18.113 18.246 18.1845 18.1745C18.256 18.103 18.3127 18.0181 18.3514 17.9247C18.3901 17.8312 18.41 17.7311 18.41 17.63V13C18.4074 12.7966 18.3255 12.6022 18.1816 12.4584C18.0378 12.3145 17.8434 12.2326 17.64 12.23V12.23ZM28.43 12.23H24.92C24.7166 12.2326 24.5222 12.3145 24.3784 12.4584C24.2345 12.6022 24.1526 12.7966 24.15 13V17.63C24.15 17.7311 24.1699 17.8312 24.2086 17.9247C24.2473 18.0181 24.304 18.103 24.3755 18.1745C24.447 18.246 24.5319 18.3027 24.6253 18.3414C24.7188 18.3801 24.8189 18.4 24.92 18.4H28.43C28.5315 18.4013 28.6322 18.3823 28.7263 18.3441C28.8203 18.3059 28.9057 18.2492 28.9775 18.1775C29.0492 18.1057 29.1059 18.0203 29.1441 17.9263C29.1823 17.8322 29.2013 17.7315 29.2 17.63V13C29.2 12.7958 29.1189 12.5999 28.9745 12.4555C28.8301 12.3111 28.6342 12.23 28.43 12.23V12.23ZM17.64 12.23H14.13C13.9258 12.23 13.7299 12.3111 13.5855 12.4555C13.4411 12.5999 13.36 12.7958 13.36 13V17.63C13.3587 17.7315 13.3777 17.8322 13.4159 17.9263C13.4541 18.0203 13.5108 18.1057 13.5825 18.1775C13.6543 18.2492 13.7397 18.3059 13.8337 18.3441C13.9278 18.3823 14.0285 18.4013 14.13 18.4H17.64C17.7411 18.4 17.8412 18.3801 17.9347 18.3414C18.0281 18.3027 18.113 18.246 18.1845 18.1745C18.256 18.103 18.3127 18.0181 18.3514 17.9247C18.3901 17.8312 18.41 17.7311 18.41 17.63V13C18.4074 12.7966 18.3255 12.6022 18.1816 12.4584C18.0378 12.3145 17.8434 12.2326 17.64 12.23V12.23ZM40.56 28.23H37.37V2C37.37 1.46957 37.1593 0.96086 36.7842 0.585787C36.4091 0.210714 35.9004 0 35.37 0H7.19C6.65957 0 6.15086 0.210714 5.77579 0.585787C5.40071 0.96086 5.19 1.46957 5.19 2V28.18H2C1.46957 28.18 0.96086 28.3907 0.585787 28.7658C0.210714 29.1409 0 29.6496 0 30.18V62C0 62.5304 0.210714 63.0391 0.585787 63.4142C0.96086 63.7893 1.46957 64 2 64H40.56C41.0904 64 41.5991 63.7893 41.9742 63.4142C42.3493 63.0391 42.56 62.5304 42.56 62V30.18C42.56 29.6496 42.3493 29.1409 41.9742 28.7658C41.5991 28.3907 41.0904 28.18 40.56 28.18V28.23ZM9.19 4H33.37V28.18H9.19V4Z"
    fill="currentColor"/>
</svg>
