<svg width="78" height="68" viewBox="0 0 78 68" fill="none" xmlns="http://www.w3.org/2000/svg">
<path d="M39 6L71.1 61.5H6.9L39 6ZM39 0C36.9 0 34.9 1.1 33.8 3L1.7 58.5C0.6 60.4 0.6 62.6 1.7 64.5C2.8 66.4 4.8 67.5 6.9 67.5H71C73.1 67.5 75.1 66.4 76.2 64.5C77.3 62.6 77.3 60.4 76.2 58.5L44.2 3C43.1 1.1 41.1 0 39 0V0Z" fill="black"/>
<path d="M39 44.2C37.3 44.2 36 42.9 36 41.2V24.5C36 22.8 37.3 21.5 39 21.5C40.7 21.5 42 22.8 42 24.5V41.2C42 42.8 40.7 44.2 39 44.2Z" fill="black"/>
<path d="M39 55.2C40.6569 55.2 42 53.8569 42 52.2C42 50.5432 40.6569 49.2 39 49.2C37.3431 49.2 36 50.5432 36 52.2C36 53.8569 37.3431 55.2 39 55.2Z" fill="black"/>
</svg>
